<svg width="612" height="613" fill="none" xmlns="http://www.w3.org/2000/svg"><path fill="#DDD" d="M0 0h612v613H0z"/><path d="M306 384c4.42 0 8.128-1.498 11.123-4.493 2.985-2.985 4.477-6.687 4.477-11.107v-46.8h47.19c4.42 0 8.06-1.498 10.92-4.493 2.86-2.985 4.29-6.687 4.29-11.107 0-4.42-1.498-8.128-4.493-11.123-2.985-2.985-6.687-4.477-11.107-4.477h-46.8v-47.19c0-4.42-1.492-8.06-4.477-10.92-2.995-2.86-6.703-4.29-11.123-4.29-4.42 0-8.122 1.492-11.107 4.477-2.995 2.995-4.493 6.703-4.493 11.123v46.8h-47.19c-4.42 0-8.06 1.492-10.92 4.477-2.86 2.995-4.29 6.703-4.29 11.123 0 4.42 1.492 8.122 4.477 11.107 2.995 2.995 6.703 4.493 11.123 4.493h46.8v47.19c0 4.42 1.498 8.06 4.493 10.92 2.985 2.86 6.687 4.29 11.107 4.29Zm0 78c-21.58 0-41.86-4.098-60.84-12.293-18.98-8.185-35.49-19.297-49.53-33.337-14.04-14.04-25.152-30.55-33.337-49.53C154.098 347.86 150 327.58 150 306c0-21.58 4.098-41.86 12.293-60.84 8.185-18.98 19.297-35.49 33.337-49.53 14.04-14.04 30.55-25.158 49.53-33.353C264.14 154.092 284.42 150 306 150c21.58 0 41.86 4.092 60.84 12.277 18.98 8.195 35.49 19.313 49.53 33.353 14.04 14.04 25.152 30.55 33.337 49.53C457.902 264.14 462 284.42 462 306c0 21.58-4.098 41.86-12.293 60.84-8.185 18.98-19.297 35.49-33.337 49.53-14.04 14.04-30.55 25.152-49.53 33.337C347.86 457.902 327.58 462 306 462Z" fill="#fff"/></svg>