<svg width="354" height="410" fill="none" xmlns="http://www.w3.org/2000/svg"><path d="M347.735 293.974a233.024 233.024 0 0 0-77.762-55.781 231.673 231.673 0 0 0-93.458-19.696 231.667 231.667 0 0 0-93.457 19.696 233.028 233.028 0 0 0-77.763 55.781A20.717 20.717 0 0 0 0 307.643v82.017a20.571 20.571 0 0 0 6.06 14.322 20.297 20.297 0 0 0 14.307 5.909h312.297c5.401 0 10.582-2.16 14.401-6.006a20.571 20.571 0 0 0 5.966-14.498V307.37a20.71 20.71 0 0 0-5.296-13.396ZM177.047 191.373c52.493 0 95.047-42.841 95.047-95.687S229.54 0 177.047 0C124.554 0 82 42.84 82 95.686c0 52.846 42.554 95.687 95.047 95.687Z" fill="#646464" fill-opacity=".17"/></svg>